
  <svg xmlns="http://www.w3.org/2000/svg" width="20" height="21" fill="none">
    <path fill="#6D6AFE" fillRule="evenodd" d="M10.646 2.792a5 5 0 0 1 7.07 7.07l-.01.01-2.5 2.5a5 5 0 0 1-7.54-.54.833.833 0 0 1 1.335-.998 3.334 3.334 0 0 0 5.026.36L16.523 8.7a3.333 3.333 0 0 0-4.714-4.712l-1.429 1.42a.833.833 0 0 1-1.175-1.181L10.637 2.8l.01-.009Z" clipRule="evenodd"/>
    <path fill="#6D6AFE" fillRule="evenodd" d="M6.583 7.477a5 5 0 0 1 5.752 1.69.833.833 0 0 1-1.335.998 3.333 3.333 0 0 0-5.027-.36L3.478 12.3a3.334 3.334 0 0 0 4.714 4.713l1.42-1.42a.833.833 0 1 1 1.178 1.18l-1.425 1.424-.01.01a5 5 0 0 1-7.07-7.07l.01-.01 2.5-2.5a5 5 0 0 1 1.788-1.15Z" clipRule="evenodd"/>
  </svg>

